<svg width="18" height="18" viewBox="0 0 18 18" fill="none" xmlns="http://www.w3.org/2000/svg">
<g clip-path="url(#clip0_15_10)">
<path fill-rule="evenodd" clip-rule="evenodd" d="M1.63636 2.45455C1.63636 2.00268 2.00268 1.63636 2.45455 1.63636H5.72727C6.17914 1.63636 6.54545 2.00268 6.54545 2.45455V5.72727C6.54545 6.17914 6.17914 6.54545 5.72727 6.54545H2.45455C2.00268 6.54545 1.63636 6.17914 1.63636 5.72727V2.45455ZM2.45455 0C1.09894 0 0 1.09894 0 2.45455V5.72727C0 7.08288 1.09894 8.18182 2.45455 8.18182H5.72727C7.08288 8.18182 8.18182 7.08288 8.18182 5.72727V2.45455C8.18182 1.09894 7.08288 0 5.72727 0H2.45455ZM1.63636 12.2727C1.63636 11.8209 2.00268 11.4545 2.45455 11.4545H5.72727C6.17914 11.4545 6.54545 11.8209 6.54545 12.2727V15.5455C6.54545 15.9973 6.17914 16.3636 5.72727 16.3636H2.45455C2.00268 16.3636 1.63636 15.9973 1.63636 15.5455V12.2727ZM2.45455 9.81818C1.09894 9.81818 0 10.9171 0 12.2727V15.5455C0 16.9011 1.09894 18 2.45455 18H5.72727C7.08288 18 8.18182 16.9011 8.18182 15.5455V12.2727C8.18182 10.9171 7.08288 9.81818 5.72727 9.81818H2.45455ZM12.2727 1.63636C11.8209 1.63636 11.4545 2.00268 11.4545 2.45455V5.72727C11.4545 6.17914 11.8209 6.54545 12.2727 6.54545H15.5455C15.9973 6.54545 16.3636 6.17914 16.3636 5.72727V2.45455C16.3636 2.00268 15.9973 1.63636 15.5455 1.63636H12.2727ZM9.81818 2.45455C9.81818 1.09894 10.9171 0 12.2727 0H15.5455C16.9011 0 18 1.09894 18 2.45455V5.72727C18 7.08288 16.9011 8.18182 15.5455 8.18182H12.2727C10.9171 8.18182 9.81818 7.08288 9.81818 5.72727V2.45455ZM11.4545 12.2727C11.4545 11.8209 11.8209 11.4545 12.2727 11.4545H15.5455C15.9973 11.4545 16.3636 11.8209 16.3636 12.2727V15.5455C16.3636 15.9973 15.9973 16.3636 15.5455 16.3636H12.2727C11.8209 16.3636 11.4545 15.9973 11.4545 15.5455V12.2727ZM12.2727 9.81818C10.9171 9.81818 9.81818 10.9171 9.81818 12.2727V15.5455C9.81818 16.9011 10.9171 18 12.2727 18H15.5455C16.9011 18 18 16.9011 18 15.5455V12.2727C18 10.9171 16.9011 9.81818 15.5455 9.81818H12.2727Z" fill="#181D27"/>
</g>
<defs>
<clipPath id="clip0_15_10">
<rect width="18" height="18" fill="white"/>
</clipPath>
</defs>
</svg>
