<svg width="18" height="18" viewBox="0 0 18 18" fill="none" xmlns="http://www.w3.org/2000/svg">
<circle cx="6.75" cy="4.5" r="3" stroke="#181D27" stroke-width="1.5"/>
<ellipse cx="6.75" cy="12.75" rx="5.25" ry="3" stroke="#181D27" stroke-width="1.5"/>
<path d="M12.8164 9.40384L13.2714 8.80764L12.8164 9.40384ZM13.5 6.48266L12.9681 7.01143C13.1089 7.15303 13.3003 7.23266 13.5 7.23266C13.6997 7.23266 13.8911 7.15303 14.0319 7.01143L13.5 6.48266ZM14.1836 9.40384L13.7286 8.80764L14.1836 9.40384ZM12.8164 9.40384L13.2714 8.80764C12.8953 8.52062 12.5877 8.31272 12.3376 8.0401C12.1133 7.79558 12 7.56227 12 7.27479H11.25H10.5C10.5 8.04662 10.8389 8.62521 11.2322 9.05407C11.5999 9.45483 12.0754 9.7818 12.3614 10L12.8164 9.40384ZM11.25 7.27479H12C12 7.03937 12.1367 6.85718 12.2988 6.78543C12.4198 6.73191 12.6561 6.69759 12.9681 7.01143L13.5 6.48266L14.0319 5.95388C13.3314 5.24932 12.4428 5.08141 11.6918 5.41374C10.9821 5.72783 10.5 6.45091 10.5 7.27479H11.25ZM12.8164 9.40384L12.3614 10C12.4714 10.084 12.6263 10.2028 12.7921 10.2966C12.9582 10.3905 13.2031 10.5 13.5 10.5V9.75V9C13.5719 9 13.5918 9.02553 13.5307 8.991C13.4694 8.95629 13.395 8.90195 13.2714 8.80764L12.8164 9.40384ZM14.1836 9.40384L14.6386 10C14.9246 9.7818 15.4001 9.45483 15.7678 9.05407C16.1611 8.62521 16.5 8.04662 16.5 7.27479H15.75H15C15 7.56227 14.8867 7.79558 14.6624 8.0401C14.4123 8.31272 14.1047 8.52062 13.7286 8.80764L14.1836 9.40384ZM15.75 7.27479H16.5C16.5 6.45091 16.0179 5.72783 15.3082 5.41374C14.5572 5.08141 13.6686 5.24932 12.9681 5.95388L13.5 6.48266L14.0319 7.01143C14.3439 6.69759 14.5802 6.73191 14.7012 6.78543C14.8633 6.85718 15 7.03937 15 7.27479H15.75ZM14.1836 9.40384L13.7286 8.80764C13.605 8.90195 13.5306 8.95629 13.4693 8.991C13.4082 9.02553 13.4281 9 13.5 9V9.75V10.5C13.7969 10.5 14.0418 10.3905 14.2079 10.2966C14.3737 10.2028 14.5286 10.084 14.6386 10L14.1836 9.40384Z" fill="#181D27"/>
</svg>
