<svg width="18" height="18" viewBox="0 0 18 18" fill="none" xmlns="http://www.w3.org/2000/svg">
<path d="M3 8.625V4.28423C3 3.78781 3 3.5396 3.04161 3.33284C3.22478 2.42267 3.98419 1.71074 4.95503 1.53901C5.17557 1.5 5.44033 1.5 5.96985 1.5C6.20186 1.5 6.31786 1.5 6.42934 1.50977C6.90999 1.55191 7.36591 1.72896 7.73757 2.01779C7.82377 2.08478 7.9058 2.16168 8.06985 2.31548L8.4 2.625C8.88947 3.08388 9.1342 3.31331 9.42727 3.46618C9.58826 3.55015 9.75904 3.61646 9.93621 3.66381C10.2587 3.75 10.6048 3.75 11.2971 3.75H11.5213C13.1007 3.75 13.8904 3.75 14.4037 4.18282C14.4509 4.22264 14.4959 4.26476 14.5383 4.30903C15 4.79026 15 5.53061 15 7.01132V8.625" stroke="#181D27" stroke-width="1.5"/>
<path d="M7.5 12.75H10.5" stroke="#181D27" stroke-width="1.5" stroke-linecap="round"/>
<path d="M2.60755 13.1129C2.24968 11.0758 2.07075 10.0573 2.50431 9.32475C2.61495 9.13781 2.75139 8.96861 2.90931 8.82251C3.52815 8.25 4.52843 8.25 6.52898 8.25H11.471C13.4716 8.25 14.4719 8.25 15.0907 8.82251C15.2486 8.96861 15.3851 9.13781 15.4957 9.32475C15.9293 10.0573 15.7503 11.0758 15.3924 13.1129C15.1348 14.5793 15.006 15.3126 14.5597 15.7991C14.4439 15.9254 14.3144 16.0373 14.1736 16.1326C13.6312 16.5 12.9112 16.5 11.471 16.5H6.52898C5.08883 16.5 4.36875 16.5 3.82637 16.1326C3.68565 16.0373 3.55609 15.9254 3.4403 15.7991C2.99399 15.3126 2.86518 14.5793 2.60755 13.1129Z" stroke="#181D27" stroke-width="1.5"/>
</svg>
