<svg width="18" height="18" viewBox="0 0 18 18" fill="none" xmlns="http://www.w3.org/2000/svg">
<path d="M10.5028 3H7.49723C4.66357 3 3.24674 3 2.36644 3.87868C1.70746 4.53644 1.54178 5.49429 1.50012 7.12083C1.49478 7.32936 1.6659 7.49601 1.86807 7.54888C2.51306 7.71755 2.9889 8.30331 2.9889 9C2.9889 9.69669 2.51306 10.2824 1.86807 10.4511C1.6659 10.504 1.49478 10.6706 1.50012 10.8792C1.54178 12.5057 1.70746 13.4636 2.36644 14.1213C3.24674 15 4.66357 15 7.49723 15H10.5028C13.3364 15 14.7533 15 15.6336 14.1213C16.2925 13.4636 16.4582 12.5057 16.4999 10.8792C16.5052 10.6706 16.3341 10.504 16.1319 10.4511C15.4869 10.2824 15.0111 9.69669 15.0111 9C15.0111 8.30331 15.4869 7.71755 16.1319 7.54888C16.3341 7.49601 16.5052 7.32936 16.4999 7.12083C16.4582 5.49429 16.2925 4.53644 15.6336 3.87868C14.7533 3 13.3364 3 10.5028 3Z" stroke="#181D27" stroke-width="1.5"/>
<path d="M8.35946 7.51688C8.64446 7.00563 8.78696 6.75 9 6.75C9.21304 6.75 9.35554 7.00563 9.64054 7.51688L9.71427 7.64915C9.79526 7.79444 9.83575 7.86708 9.89889 7.91501C9.96203 7.96294 10.0407 7.98073 10.1979 8.01631L10.3411 8.04871C10.8945 8.17392 11.1712 8.23653 11.2371 8.44824C11.3029 8.65994 11.1143 8.88054 10.737 9.32173L10.6394 9.43587C10.5322 9.56125 10.4785 9.62393 10.4544 9.70149C10.4303 9.77904 10.4384 9.86268 10.4546 10.0299L10.4694 10.1822C10.5264 10.7709 10.5549 11.0652 10.3826 11.196C10.2102 11.3269 9.95115 11.2076 9.43297 10.969L9.29892 10.9073C9.15167 10.8395 9.07804 10.8056 9 10.8056C8.92196 10.8056 8.84833 10.8395 8.70108 10.9073L8.56703 10.969C8.04885 11.2076 7.78976 11.3269 7.61741 11.196C7.44505 11.0652 7.47357 10.7709 7.53061 10.1822L7.54537 10.03C7.56158 9.86268 7.56969 9.77904 7.54557 9.70149C7.52145 9.62393 7.46785 9.56125 7.36063 9.43588L7.26302 9.32173C6.88573 8.88054 6.69709 8.65994 6.76292 8.44824C6.82875 8.23653 7.10547 8.17392 7.6589 8.04871L7.80207 8.01631C7.95934 7.98073 8.03797 7.96294 8.10111 7.91501C8.16425 7.86708 8.20474 7.79444 8.28573 7.64915L8.35946 7.51688Z" stroke="#181D27" stroke-width="1.5"/>
</svg>
